<svg width="18" height="16" viewBox="0 0 18 16" fill="none" xmlns="http://www.w3.org/2000/svg">
<path fill-rule="evenodd" clip-rule="evenodd" d="M4.53809 2.6665H2.22222C0.994924 2.6665 0 3.66143 0 4.88873V5.37113L7.26638 8.06877C7.6781 8.22162 8.11367 8.29988 8.55272 8.29988H9.44727C9.88633 8.29988 10.3219 8.22162 10.7336 8.06877L18 5.37113V4.88873C18 3.66143 17.0051 2.6665 15.7778 2.6665H13.462C13.0266 1.12758 11.6117 0 9.93336 0H8.06669C6.38838 0 4.97343 1.12758 4.53809 2.6665ZM6.73336 2.6665H11.2667C10.9626 2.26178 10.4786 2 9.93336 2H8.06669C7.52149 2 7.03743 2.26178 6.73336 2.6665ZM10 5.5C10 4.94772 9.55229 4.5 9 4.5C8.44771 4.5 8 4.94772 8 5.5V6.38889C8 6.94117 8.44771 7.38889 9 7.38889C9.55229 7.38889 10 6.94117 10 6.38889V5.5Z" fill="#667185"/>
<path d="M1.52687 13.3022L0.900024 7.11108L7.59579 9.591C7.92929 9.71452 8.28209 9.77775 8.63773 9.77775H9.36232C9.71795 9.77775 10.0708 9.71452 10.4043 9.591L17.1 7.11108L16.4732 13.3022C16.3181 14.8342 15.0283 16 13.4884 16H4.51161C2.97178 16 1.68199 14.8342 1.52687 13.3022Z" fill="#667185"/>
</svg>
