<svg width="16" height="20" viewBox="0 0 16 20" fill="none" xmlns="http://www.w3.org/2000/svg">
<path fill-rule="evenodd" clip-rule="evenodd" d="M7.606 0.0799129C7.7305 0.0265431 7.86454 -0.000976563 8 -0.000976562C8.13546 -0.000976563 8.2695 0.0265431 8.394 0.0799129L14.788 2.82091C15.1478 2.97517 15.4545 3.23165 15.6699 3.55855C15.8854 3.88545 16.0002 4.2684 16 4.65991V11.5199C15.9999 12.7538 15.6736 13.9658 15.0542 15.033C14.4348 16.1002 13.5443 16.9847 12.473 17.5969L8.496 19.8689C8.34494 19.9552 8.17397 20.0006 8 20.0006C7.82603 20.0006 7.65507 19.9552 7.504 19.8689L3.527 17.5969C2.45537 16.9845 1.5647 16.0997 0.945292 15.0321C0.325886 13.9646 -0.000231496 12.7522 1.23291e-07 11.5179V4.65991C4.3344e-05 4.26857 0.114896 3.88584 0.330331 3.55913C0.545765 3.23243 0.852313 2.9761 1.212 2.82191L7.606 0.0799129ZM11.707 8.70691C11.8892 8.51831 11.99 8.26571 11.9877 8.00351C11.9854 7.74132 11.8802 7.4905 11.6948 7.3051C11.5094 7.11969 11.2586 7.01452 10.9964 7.01224C10.7342 7.00996 10.4816 7.11076 10.293 7.29291L7 10.5859L5.707 9.29291C5.5184 9.11076 5.2658 9.00996 5.0036 9.01224C4.7414 9.01452 4.49059 9.11969 4.30518 9.3051C4.11977 9.4905 4.01461 9.74132 4.01233 10.0035C4.01005 10.2657 4.11084 10.5183 4.293 10.7069L6.293 12.7069C6.48053 12.8944 6.73484 12.9997 7 12.9997C7.26516 12.9997 7.51947 12.8944 7.707 12.7069L11.707 8.70691Z" fill="#1DA5DB"/>
</svg>
