<svg width="17" height="16" viewBox="0 0 17 16" fill="none" xmlns="http://www.w3.org/2000/svg">
<path fill-rule="evenodd" clip-rule="evenodd" d="M3.60325 2C2.37498 2 1.37927 2.96252 1.37927 4.14984V11.3333C1.37927 12.8061 2.61435 14 4.13789 14H12.4138C13.9373 14 15.1724 12.8061 15.1724 11.3333V7.03704C15.1724 5.56456 13.9383 4.37037 12.4144 4.37037H10.2687C10.2412 4.33124 10.2095 4.28146 10.1736 4.21942C10.0764 4.05143 9.98192 3.85408 9.8735 3.62767C9.84778 3.57395 9.82125 3.51857 9.79374 3.46159C9.66188 3.18847 9.50212 2.86767 9.31715 2.61317C9.16361 2.40191 8.82815 2 8.28531 2H3.60325ZM8.61213 4.16784C8.64356 4.23358 8.6761 4.30162 8.70949 4.37037H2.75858V4.14984C2.75858 3.6989 3.13675 3.33333 3.60325 3.33333H8.15303C8.16327 3.34589 8.17511 3.36119 8.18854 3.37967C8.29378 3.52447 8.40705 3.74211 8.54385 4.02547C8.56592 4.07119 8.58874 4.1189 8.61213 4.16784ZM4.13789 12.6667C3.37612 12.6667 2.75858 12.0697 2.75858 11.3333V5.7037H9.98491C9.98673 5.70374 9.98855 5.70377 9.99036 5.70379C9.99824 5.7039 10.0061 5.70386 10.014 5.7037H12.4144C13.1759 5.7037 13.7931 6.30037 13.7931 7.03704V7.33333H12.4138C11.2711 7.33333 10.3448 8.22876 10.3448 9.33333C10.3448 10.4379 11.2711 11.3333 12.4138 11.3333H13.7931C13.7931 12.0697 13.1755 12.6667 12.4138 12.6667H4.13789ZM11.7241 9.33333C11.7241 8.96514 12.0329 8.66667 12.4138 8.66667H13.7931V10H12.4138C12.0329 10 11.7241 9.70152 11.7241 9.33333ZM8.10436 3.28215C8.10437 3.28181 8.10722 3.28377 8.11289 3.28904C8.10719 3.28513 8.10436 3.28249 8.10436 3.28215Z" fill="#475367"/>
</svg>
