<svg width="20" height="20" viewBox="0 0 20 20" fill="none" xmlns="http://www.w3.org/2000/svg">
<path d="M1.73548 9.89203C1.73507 11.3474 2.11705 12.7684 2.84338 14.0209L1.66602 18.3005L6.06527 17.1521C7.28205 17.8115 8.64535 18.1571 10.0307 18.1572H10.0344C14.6078 18.1572 18.3307 14.4523 18.3327 9.89854C18.3336 7.69192 17.4711 5.61695 15.9042 4.05586C14.3376 2.4949 12.254 1.6348 10.034 1.63379C5.46006 1.63379 1.73743 5.33846 1.73555 9.89203" fill="url(#paint0_linear_11182_26566)"/>
<path d="M1.73568 9.8921C1.73522 11.3476 2.11719 12.7685 2.84336 14.021L1.66602 18.3005L6.06517 17.1521C7.27728 17.8101 8.64199 18.157 10.0307 18.1575H10.0342C14.6077 18.1575 18.3307 14.4522 18.3327 9.89871C18.3335 7.69193 17.471 5.61679 15.9043 4.05575C14.3374 2.4949 12.2541 1.6347 10.0342 1.63379C5.46003 1.63379 1.7375 5.33854 1.73568 9.8921ZM4.35553 13.8053L4.19128 13.5457C3.50078 12.4527 3.13633 11.1896 3.13685 9.89262C3.13828 6.10782 6.23229 3.02858 10.0368 3.02858C11.8793 3.02936 13.6108 3.74438 14.9132 5.0417C16.2154 6.33914 16.932 8.06383 16.9316 9.89819C16.9299 13.683 13.8358 16.7626 10.0342 16.7626H10.0315C8.79369 16.762 7.57969 16.431 6.52096 15.8056L6.26901 15.6569L3.65846 16.3383L4.35553 13.8053Z" fill="url(#paint1_linear_11182_26566)"/>
<path d="M7.95262 6.18693C7.79902 5.81883 7.63737 5.8114 7.4913 5.80495C7.37168 5.7994 7.23495 5.79981 7.09834 5.79981C6.9616 5.79981 6.73944 5.85527 6.55165 6.07636C6.36367 6.29765 5.83398 6.83241 5.83398 7.92005C5.83398 9.00768 6.56871 10.0589 6.67114 10.2065C6.77369 10.3539 8.08955 12.6573 10.1735 13.5434C11.9055 14.2798 12.258 14.1334 12.6339 14.0965C13.0099 14.0597 13.847 13.5618 14.0178 13.0456C14.1887 12.5294 14.1887 12.087 14.1375 11.9945C14.0862 11.9024 13.9495 11.8471 13.7445 11.7366C13.5394 11.6261 12.5313 11.0912 12.3434 11.0174C12.1554 10.9437 12.0188 10.9069 11.882 11.1283C11.7453 11.3493 11.3527 11.8471 11.233 11.9945C11.1134 12.1423 10.9938 12.1607 10.7888 12.0501C10.5836 11.9392 9.92331 11.7061 9.13992 10.953C8.5304 10.367 8.1189 9.64337 7.99929 9.42201C7.87968 9.201 7.98648 9.08119 8.08929 8.97104C8.18141 8.87198 8.29439 8.71289 8.39701 8.58385C8.49924 8.45474 8.53336 8.36263 8.60173 8.21519C8.67016 8.06762 8.63591 7.93851 8.58473 7.82793C8.53336 7.71736 8.13493 6.62403 7.95262 6.18693Z" fill="white"/>
<defs>
<linearGradient id="paint0_linear_11182_26566" x1="834.999" y1="1668.3" x2="834.999" y2="1.63379" gradientUnits="userSpaceOnUse">
<stop stop-color="#1FAF38"/>
<stop offset="1" stop-color="#60D669"/>
</linearGradient>
<linearGradient id="paint1_linear_11182_26566" x1="834.999" y1="1668.3" x2="834.999" y2="1.63379" gradientUnits="userSpaceOnUse">
<stop stop-color="#F9F9F9"/>
<stop offset="1" stop-color="white"/>
</linearGradient>
</defs>
</svg>
