<svg width="20" height="20" viewBox="0 0 20 20" fill="none" xmlns="http://www.w3.org/2000/svg">
<path d="M3.33301 5.00033C3.33301 4.54009 3.7061 4.16699 4.16634 4.16699H15.833C16.2932 4.16699 16.6663 4.54009 16.6663 5.00033C16.6663 5.46056 16.2932 5.83366 15.833 5.83366H4.16634C3.7061 5.83366 3.33301 5.46056 3.33301 5.00033Z" fill="#344054"/>
<path d="M4.99967 10.0003C4.99967 9.54009 5.37277 9.16699 5.83301 9.16699H14.1663C14.6266 9.16699 14.9997 9.54009 14.9997 10.0003C14.9997 10.4606 14.6266 10.8337 14.1663 10.8337H5.83301C5.37277 10.8337 4.99967 10.4606 4.99967 10.0003Z" fill="#344054"/>
<path d="M7.49967 14.167C7.03944 14.167 6.66634 14.5401 6.66634 15.0003C6.66634 15.4606 7.03944 15.8337 7.49967 15.8337H12.4997C12.9599 15.8337 13.333 15.4606 13.333 15.0003C13.333 14.5401 12.9599 14.167 12.4997 14.167H7.49967Z" fill="#344054"/>
</svg>
