<svg width="22" height="28" viewBox="0 0 22 28" fill="none" xmlns="http://www.w3.org/2000/svg">
<path fill-rule="evenodd" clip-rule="evenodd" d="M10.4753 0.772892C10.6413 0.701732 10.82 0.665039 11.0007 0.665039C11.1813 0.665039 11.36 0.701732 11.526 0.772892L20.0513 4.42756C20.5311 4.63323 20.94 4.97521 21.2272 5.41108C21.5145 5.84695 21.6675 6.35754 21.6673 6.87956V16.0262C21.6672 17.6715 21.2321 19.2874 20.4063 20.7103C19.5804 22.1333 18.3931 23.3126 16.9647 24.1289L11.662 27.1582C11.4606 27.2733 11.2326 27.3338 11.0007 27.3338C10.7687 27.3338 10.5407 27.2733 10.3393 27.1582L5.03665 24.1289C3.60781 23.3124 2.42025 22.1326 1.59437 20.7092C0.7685 19.2857 0.333676 17.6692 0.333985 16.0236V6.87956C0.334042 6.35777 0.487179 5.84746 0.774425 5.41185C1.06167 4.97624 1.4704 4.63448 1.94998 4.42889L10.4753 0.772892ZM15.9433 12.2756C16.1862 12.0241 16.3206 11.6873 16.3175 11.3377C16.3145 10.9881 16.1743 10.6537 15.9271 10.4065C15.6799 10.1593 15.3454 10.019 14.9959 10.016C14.6463 10.013 14.3095 10.1473 14.058 10.3902L9.66732 14.7809L7.94332 13.0569C7.69185 12.814 7.35505 12.6796 7.00545 12.6827C6.65585 12.6857 6.32144 12.8259 6.07423 13.0731C5.82702 13.3203 5.68679 13.6548 5.68375 14.0044C5.68072 14.354 5.81511 14.6908 6.05798 14.9422L8.72465 17.6089C8.97469 17.8589 9.31377 17.9993 9.66732 17.9993C10.0209 17.9993 10.3599 17.8589 10.61 17.6089L15.9433 12.2756Z" fill="#344054"/>
</svg>
